Coordinates
version=1
nRows=6
nColumns=38
inDegrees=yes

Units are S.I. units (second, meters, Newtons, ...)
Angles are in degrees.

endheader
time	pelvis_tilt	pelvis_list	pelvis_rotation	pelvis_tx	pelvis_ty	pelvis_tz	hip_flexion_r	hip_adduction_r	hip_rotation_r	knee_angle_r	ankle_angle_r	subtalar_angle_r	mtp_angle_r	hip_flexion_l	hip_adduction_l	hip_rotation_l	knee_angle_l	ankle_angle_l	subtalar_angle_l	mtp_angle_l	lumbar_extension	lumbar_bending	lumbar_rotation	arm_flex_r	arm_add_r	arm_rot_r	elbow_flex_r	pro_sup_r	wrist_flex_r	wrist_dev_r	arm_flex_l	arm_add_l	arm_rot_l	elbow_flex_l	pro_sup_l	wrist_flex_l	wrist_dev_l
      7.46000000	     -8.27157261	     -2.12099077	     -3.01174213	     -0.13747100	      0.86276255	      2.60559455	     27.97826420	      5.03868729	     -1.66934351	    -15.79855307	     -2.06393420	      0.00000000	      0.00000000	     -0.04013667	     -3.44085939	     -0.72566585	    -59.78494878	    -22.73434013	      0.00000000	      0.00000000	     -1.05987498	      4.57846549	     -4.34580783	    -27.44671644	    -23.17258622	      7.93591233	    121.68733743	     76.17355208	      0.00000000	      0.00000000	      0.25891096	    -15.09339885	     19.36806167	    122.83570637	     98.75613612	      0.00000000	      0.00000000
      7.47000000	     -7.58648656	     -2.79472328	     -3.29377774	     -0.13947954	      0.85443796	      2.60799903	     28.60080728	      6.10447001	     -1.06002160	    -20.78677578	     -0.44568451	      0.00000000	      0.00000000	      1.47476938	     -4.53256137	     -0.94359936	    -64.76454170	    -20.89265517	      0.00000000	      0.00000000	     -2.12585673	      5.16079416	     -3.43981461	    -24.89984183	    -23.39093582	      9.22763493	    120.24716029	     76.06838285	      0.00000000	      0.00000000	     -0.09238622	    -14.96728069	     18.96187872	    122.29833901	     98.90131324	      0.00000000	      0.00000000
      7.48000000	     -6.71412277	     -3.68412145	     -3.60166604	     -0.14217168	      0.84622402	      2.61086298	     29.41769530	      7.51881912	     -0.42068043	    -26.63994329	      2.08497807	      0.00000000	      0.00000000	      2.95598484	     -5.91735801	     -1.08475277	    -69.73146115	    -18.98178671	      0.00000000	      0.00000000	     -3.52811125	      5.87281594	     -2.42656925	    -21.98783015	    -23.56025932	     10.67435537	    118.51476631	     75.91683003	      0.00000000	      0.00000000	     -0.43397082	    -14.83785588	     18.39657430	    121.60124912	     98.84639068	      0.00000000	      0.00000000
      7.49000000	     -5.73431004	     -4.67810052	     -3.93767006	     -0.14493574	      0.83773501	      2.61402074	     30.17629613	      9.14983632	      0.21909174	    -32.64758798	      5.31241045	      0.00000000	      0.00000000	      4.44074462	     -7.47244439	     -1.17785547	    -74.57412942	    -17.02677533	      0.00000000	      0.00000000	     -5.07305999	      6.63265243	     -1.31247863	    -18.75422440	    -23.69960491	     12.30268154	    116.48229819	     75.82642255	      0.00000000	      0.00000000	     -0.83816963	    -14.65585375	     17.69696597	    120.71012503	     98.59513330	      0.00000000	      0.00000000
      7.50000000	     -4.84804783	     -5.63866957	     -4.33108287	     -0.14761906	      0.82918840	      2.61691108	     30.61323401	     10.82157663	      0.81689820	    -37.96046568	      8.83706527	      0.00000000	      0.00000000	      6.08244523	     -9.02335034	     -1.26569372	    -79.11115828	    -15.07253445	      0.00000000	      0.00000000	     -6.48179554	      7.37574989	     -0.09560916	    -15.29221618	    -23.83869766	     14.11711743	    114.17434248	     75.92984892	      0.00000000	      0.00000000	     -1.40758534	    -14.37420833	     16.92693574	    119.60674395	     98.18732546	      0.00000000	      0.00000000
      7.51000000	     -4.28584603	     -6.46759218	     -4.81012733	     -0.15017569	      0.82166740	      2.61899905	     30.55528842	     12.32843472	      1.34384558	    -41.90184007	     12.23878127	      0.00000000	      0.00000000	      8.06588492	    -10.39263801	     -1.35476153	    -83.13611285	    -13.17225226	      0.00000000	      0.00000000	     -7.51917641	      8.06088211	      1.21693235	    -11.72780685	    -23.99380712	     16.08400324	    111.67327487	     76.35555587	      0.00000000	      0.00000000	     -2.22153597	    -13.97991237	     16.17040088	    118.30218682	     97.68656815	      0.00000000	      0.00000000
